# xmcd
#
# Track frame offsets:
#	150
#	27212
#	46070
#	77387
#	94597
#	119047
#	138147
#	163745
#	191537
#	214125
#	231330
#
# Disc length: 3675 seconds
#
# Revision: 0
# Processed by: cddbd v1.5.1PL0 Copyright (c) Steve Scherf et al.
# Submitted via: dBpowerAMP V4.0
#
DISCID=8a0e590b
DTITLE=Mr. B - Live At The KerryTown Concert House
DYEAR=2002
DGENRE=Blues
TTITLE0=Pinetop's Boogie
TTITLE1=When The Saints Go Marching In
TTITLE2=After Hours
TTITLE3=Jimmy's Stuff
TTITLE4=Cow-Cow Blues
TTITLE5=Honky-Tonk Train Blues
TTITLE6=Sunnyside Of The Street
TTITLE7=Vicksburg Blues
TTITLE8=Chicago Breakdown
TTITLE9=My Babe
TTITLE10=St. Louis Blues
EXTD=
EXTT0=
EXTT1=
EXTT2=
EXTT3=
EXTT4=
EXTT5=
EXTT6=
EXTT7=
EXTT8=
EXTT9=
EXTT10=
PLAYORDER=
